<svg xmlns="http://www.w3.org/2000/svg" viewBox="0 0 640 427"><defs><style>.cls-1{fill:#9fc0e1;}.cls-2{fill:#003e8d;}</style></defs><title>STEP4</title><g id="背景"><rect class="cls-1" width="640" height="427"/></g><g id="レイヤー_1" data-name="レイヤー 1"><g id="ご利用案内"><g id="ページ_" data-name="ページ０"><g id="ご返却"><g id="SHOP"><g id="store"><path class="cls-2" d="M348.85,114.34H168V137H348.85Zm11.31,113V204.77l-11.31-56.52H168l-11.3,56.52v22.61H168V295.2H281V227.38h45.22V295.2h22.6V227.38ZM258.42,272.6H190.6V227.38h67.82Z" transform="translate(-100.94 -84.14)"/></g></g><path class="cls-2" d="M318.53,330.4a5.28,5.28,0,0,1-5.27-5.27V289.52h-.51v35.61a5.27,5.27,0,1,1-10.54,0V261.44l-.16,27.84a4.52,4.52,0,0,1-9,0l.14-27.83a9.72,9.72,0,0,1,9.7-9.64H323.2a9.71,9.71,0,0,1,9.69,9.64l0,3.83,4.58-3.44a4.43,4.43,0,0,1,2.71-.91,4.51,4.51,0,0,1,2.71,8.12l-11.76,8.85a4.58,4.58,0,0,1-2.71.91h0a4.63,4.63,0,0,1-2-.47,4.51,4.51,0,0,1-2.51-4l-.06-12.83-.07-.15c-.06,8.6,0,19.94,0,31.28,0,11.95.05,23.89.05,32.56A5.28,5.28,0,0,1,318.53,330.4Z" transform="translate(-100.94 -84.14)"/><path class="cls-1" d="M323.2,252.48a9,9,0,0,1,9,8.92l0,5.28,5.73-4.31a3.75,3.75,0,0,1,2.28-.77,3.79,3.79,0,0,1,2.28,6.82l-11.77,8.85a3.78,3.78,0,0,1-2.27.76,3.87,3.87,0,0,1-1.69-.39,3.81,3.81,0,0,1-2.1-3.38l-.07-12.82a.28.28,0,0,0,0-.09.8.8,0,0,0-.8-.79h0a.79.79,0,0,0-.79.79c0,17.53.08,46.87.08,63.78a4.55,4.55,0,1,1-9.09,0V288.79h-2v36.34a4.55,4.55,0,1,1-9.09,0V261.44a.73.73,0,0,0-.73-.73h0a.73.73,0,0,0-.73.73l-.14,27.84a3.79,3.79,0,0,1-3.79,3.76h0a3.79,3.79,0,0,1-3.77-3.8l.14-27.84a9,9,0,0,1,9-8.92H323.2m0-1.45H302.86a10.44,10.44,0,0,0-10.42,10.36l-.14,27.84a5.24,5.24,0,0,0,5.21,5.27,5.25,5.25,0,0,0,4-1.8v32.43A6,6,0,0,0,313,327.46a6,6,0,0,0,11.52-2.33c0-8.67,0-20.61,0-32.55,0-5.06,0-10.11,0-14.91a5.26,5.26,0,0,0,7.12.76l11.76-8.85a5.24,5.24,0,1,0-6.3-8.37l-3.43,2.57v-2.39A10.44,10.44,0,0,0,323.2,251Z" transform="translate(-100.94 -84.14)"/><circle class="cls-2" cx="212.11" cy="157.99" r="8.58"/><path class="cls-1" d="M313.06,234.27a7.86,7.86,0,1,1-7.86,7.86,7.86,7.86,0,0,1,7.86-7.86m0-1.45a9.31,9.31,0,1,0,9.3,9.31,9.33,9.33,0,0,0-9.3-9.31Z" transform="translate(-100.94 -84.14)"/><path class="cls-2" d="M577.87,416.76c0,27.1,22.23,49.07,49.66,49.07s49.67-22,49.67-49.07S655,367.69,627.53,367.69,577.87,389.66,577.87,416.76Zm22.89,0a26.77,26.77,0,1,1,26.77,26.45A26.65,26.65,0,0,1,600.76,416.76Z" transform="translate(-100.94 -84.14)"/><path class="cls-2" d="M677.58,387.69a9.1,9.1,0,0,1-7.51-3.94,51.65,51.65,0,0,0-85.06,0,9.1,9.1,0,0,1-12.56,2.4A8.89,8.89,0,0,1,570,373.68a69.87,69.87,0,0,1,115.05,0,8.91,8.91,0,0,1-2.44,12.45A9,9,0,0,1,677.58,387.69Z" transform="translate(-100.94 -84.14)"/><path class="cls-1" d="M627.53,344.9a68.15,68.15,0,0,1,56.36,29.6,7.49,7.49,0,0,1-2,10.47,7.67,7.67,0,0,1-10.59-2,53.08,53.08,0,0,0-87.41,0,7.68,7.68,0,0,1-10.6,2,7.49,7.49,0,0,1-2-10.47,68.18,68.18,0,0,1,56.34-29.58m0-2.84a71,71,0,0,0-58.68,30.81,10.33,10.33,0,0,0,2.81,14.44,10.52,10.52,0,0,0,14.52-2.78,50.24,50.24,0,0,1,82.72,0,10.52,10.52,0,0,0,14.52,2.78,10.33,10.33,0,0,0,2.82-14.43,71,71,0,0,0-58.71-30.84Z" transform="translate(-100.94 -84.14)"/><path class="cls-2" d="M399.07,416.76c0,27.1,22.24,49.07,49.67,49.07s49.67-22,49.67-49.07-22.24-49.07-49.67-49.07S399.07,389.66,399.07,416.76Zm22.9,0a26.77,26.77,0,1,1,26.77,26.45A26.65,26.65,0,0,1,422,416.76Z" transform="translate(-100.94 -84.14)"/><path class="cls-2" d="M448.74,344.9a68.16,68.16,0,0,1,56.36,29.6A7.49,7.49,0,0,1,503.05,385a7.7,7.7,0,0,1-10.6-2,53.08,53.08,0,0,0-87.41,0,7.68,7.68,0,0,1-10.59,2,7.48,7.48,0,0,1-2.05-10.47A68.17,68.17,0,0,1,448.74,344.9Z" transform="translate(-100.94 -84.14)"/><path class="cls-2" d="M478.49,334.6a5,5,0,0,1-5.35,1.08l-44.43-19.2a10.73,10.73,0,0,1-5.15-14.38A11,11,0,0,1,438.12,297l28.94,14.2a4.86,4.86,0,0,0,5.33-.94l48.73-47.66a3.38,3.38,0,0,1,4.76-.12l67.66,67.24a3,3,0,0,1-.12,4.48c-8.57,7.29-36.32,30.92-45.91,39.26a4.79,4.79,0,0,0-1.13,5.25l23.2,50.63a6.24,6.24,0,0,1-.6,5.73L553.54,456a14.68,14.68,0,0,1-20.34,3.15A14.26,14.26,0,0,1,530,439.08l5.46-7.4a6.43,6.43,0,0,0,.67-5.76l-23.4-54.46a5.15,5.15,0,0,1,1.11-5.38c5.54-5.29,19.16-18.24,25.78-24.34a3.08,3.08,0,0,0,.06-4.57l-29.44-28.24a3.29,3.29,0,0,0-4.7.13Z" transform="translate(-100.94 -84.14)"/><path class="cls-2" d="M485,258.13l4.47,10.51-11.45,13.18a1.49,1.49,0,0,1-2.5-.39L469.43,267Z" transform="translate(-100.94 -84.14)"/><path class="cls-2" d="M488.79,256a1.49,1.49,0,0,1,2.11.71l2.6,6.1a1.45,1.45,0,0,1-.25,1.53l-1.57,1.81-4-9.5Z" transform="translate(-100.94 -84.14)"/><path class="cls-2" d="M495.52,266.26l-15.18,17.46c.32.34.67.72,1,1a8.63,8.63,0,0,0,12.26.06l25.08-24.94a4.39,4.39,0,0,0,.88-4.74l-2.77-6.5c-4.12-9.71-15.93-16.67-26.11-15.36A26.55,26.55,0,0,0,472,244.73a25,25,0,0,0-3.51,19.43l18.85-10.71a4.49,4.49,0,0,1,6.35,2.12l2.6,6.1A4.4,4.4,0,0,1,495.52,266.26Zm5.29-9.3a5.87,5.87,0,0,1,3.19-7.71,6,6,0,0,1,7.8,3.15,5.88,5.88,0,0,1-3.19,7.71A6,6,0,0,1,500.81,257Z" transform="translate(-100.94 -84.14)"/></g></g></g></g></svg>