<svg xmlns="http://www.w3.org/2000/svg" viewBox="0 0 640 427"><defs><style>.cls-1{fill:#9fc0e1;}.cls-2{fill:#003e8d;}</style></defs><title>STEP3</title><g id="背景"><rect class="cls-1" width="640" height="427"/></g><g id="レイヤー_1" data-name="レイヤー 1"><g id="ご利用案内"><g id="ページ_" data-name="ページ０"><g id="レンタル中"><g id="BIKE"><path class="cls-2" d="M293.42,324.16c-39.92,0-72.28,32-72.28,71.41S253.5,467,293.42,467s72.28-32,72.28-71.42S333.34,324.16,293.42,324.16Zm0,109.9c-21.48,0-39-17.26-39-38.49s17.48-38.49,39-38.49,39,17.27,39,38.49S314.9,434.06,293.42,434.06Z" transform="translate(-100.94 -84.14)"/><path class="cls-2" d="M220.59,351.19a11.14,11.14,0,0,0,9.22-4.83,77.25,77.25,0,0,1,127.2,0,11.21,11.21,0,0,0,15.43,2.95,10.9,10.9,0,0,0,3-15.24,99.62,99.62,0,0,0-164,0,10.88,10.88,0,0,0,3,15.23A11.06,11.06,0,0,0,220.59,351.19Z" transform="translate(-100.94 -84.14)"/><path class="cls-2" d="M553.62,324.16c-39.92,0-72.28,32-72.28,71.41S513.7,467,553.62,467s72.28-32,72.28-71.42S593.54,324.16,553.62,324.16Zm0,109.9c-21.48,0-39-17.26-39-38.49s17.48-38.49,39-38.49,39,17.27,39,38.49S575.11,434.06,553.62,434.06Z" transform="translate(-100.94 -84.14)"/><path class="cls-2" d="M553.62,291a99.21,99.21,0,0,0-82,43.08,10.91,10.91,0,0,0,3,15.24A11.2,11.2,0,0,0,490,346.36a77.24,77.24,0,0,1,127.21,0,11.18,11.18,0,0,0,15.42,2.94,10.9,10.9,0,0,0,3-15.24A99.22,99.22,0,0,0,553.62,291Z" transform="translate(-100.94 -84.14)"/><path class="cls-2" d="M510.32,276a7.34,7.34,0,0,0,7.8,1.56l64.65-27.94a15.61,15.61,0,0,0,7.49-20.93,16,16,0,0,0-21.18-7.4L527,242a7.12,7.12,0,0,1-7.77-1.37l-70.92-69.36a4.91,4.91,0,0,0-6.92-.18L342.9,268.91a4.29,4.29,0,0,0,.16,6.52c12.48,10.61,52.87,45,66.81,57.14a6.91,6.91,0,0,1,1.65,7.64L377.76,413.9a9.07,9.07,0,0,0,.87,8.33l22.48,30.47a21.36,21.36,0,0,0,29.6,4.59A20.77,20.77,0,0,0,435.35,428l-8-10.76a9.42,9.42,0,0,1-1-8.39l34.05-79.25a7.49,7.49,0,0,0-1.62-7.83c-8.06-7.69-27.88-26.55-37.51-35.41a4.49,4.49,0,0,1-.09-6.66l42.85-41.1a4.78,4.78,0,0,1,6.84.19Z" transform="translate(-100.94 -84.14)"/><path class="cls-2" d="M500.79,164.71,494.28,180,511,199.19a2.18,2.18,0,0,0,3.64-.57l8.93-21Z" transform="translate(-100.94 -84.14)"/><path class="cls-2" d="M495.34,161.61a2.18,2.18,0,0,0-3.08,1l-3.77,8.88a2.12,2.12,0,0,0,.35,2.23l2.28,2.63L497,162.55Z" transform="translate(-100.94 -84.14)"/><path class="cls-2" d="M484.49,169.86l3.78-8.88a6.53,6.53,0,0,1,9.24-3.08l27.42,15.59a36.27,36.27,0,0,0-5.1-28.27,38.65,38.65,0,0,0-27.2-16.7c-14.81-1.91-32,8.23-38,22.35l-4,9.45a6.42,6.42,0,0,0,1.28,6.91l36.49,36.3a12.61,12.61,0,0,0,17.86-.09c.43-.43.94-1,1.4-1.49l-22.08-25.41A6.35,6.35,0,0,1,484.49,169.86Zm-18-2.27a8.55,8.55,0,0,1-4.64-11.22,8.71,8.71,0,0,1,11.35-4.58A8.54,8.54,0,0,1,477.84,163,8.72,8.72,0,0,1,466.49,167.59Z" transform="translate(-100.94 -84.14)"/></g></g></g></g></g></svg>