<svg xmlns="http://www.w3.org/2000/svg" viewBox="0 0 640 427"><defs><style>.cls-1{fill:#9fc0e1;}.cls-2{fill:#003d83;}.cls-3{fill:#9cbbda;}.cls-4{isolation:isolate;font-size:89.66px;fill:#033b7a;font-family:MyriadPro-Semibold, Myriad Pro;font-weight:600;}.cls-5{letter-spacing:0em;}.cls-6{letter-spacing:0.01em;}</style></defs><title>1</title><g id="背景"><rect class="cls-1" width="640" height="427"/></g><g id="レイヤー_1" data-name="レイヤー 1"><g id="ご利用案内"><g id="ページ_" data-name="ページ０"><g id="ご予約"><g id="レイヤー_1-2" data-name="レイヤー 1"><g id="ご利用案内-2" data-name="ご利用案内"><g id="ご予約-2" data-name="ご予約"><g id="FORM"><path class="cls-2" d="M590.65,361.06V139.84a9.67,9.67,0,0,0-9.61-9.73H269.13a11.14,11.14,0,0,0-11.08,11.2h0V361.06l-80.63,66.72v25.13a12.19,12.19,0,0,0,12.12,12.26H651.87a12.67,12.67,0,0,0,12.6-12.74h0v-24Z" transform="translate(-100.94 -84.14)"/><polygon class="cls-3" points="372.9 343.64 267.08 343.64 297.36 324.02 342.81 324.02 372.9 343.64"/><rect class="cls-3" x="172.49" y="59.62" width="301.1" height="201.05"/><path class="cls-2" d="M566.12,141.22H282.61c-8.08,0-14.66,5.16-14.66,11.49V351.84c0,2.12,2.18,3.83,4.89,3.83H575.89c2.7,0,4.89-1.71,4.89-3.83V152.71C580.78,146.38,574.2,141.22,566.12,141.22Zm-288.4,23H571V348H277.72Zm4.89-15.38h5c-2.7,0-4.86,1.71-4.86,3.83s2.21,3.83,4.91,3.83,4.89-1.71,4.89-3.83-2.19-3.83-4.89-3.83h14.61c-2.7,0-4.86,1.71-4.86,3.83s2.21,3.83,4.91,3.83,4.89-1.71,4.89-3.83-2.21-3.83-4.9-3.83h14.63c-2.7,0-4.86,1.71-4.86,3.83s2.21,3.83,4.91,3.83,4.89-1.71,4.89-3.83-2.19-3.83-4.88-3.83H566.12c2.69,0,4.88,1.72,4.88,3.83v3.83H277.72v-3.83C277.72,150.6,279.91,148.84,282.61,148.84Z" transform="translate(-100.94 -84.14)"/></g><text class="cls-4" transform="translate(198 183.44) scale(0.78 1)"><tspan class="cls-5">B</tspan><tspan x="52.09" y="0">oo</tspan><tspan class="cls-6" x="153.23" y="0">k</tspan><tspan x="200.03" y="0">ing</tspan></text></g></g></g></g></g></g></g></svg>