<svg xmlns="http://www.w3.org/2000/svg" viewBox="0 0 640 427"><defs><style>.cls-1{fill:#9fc0e1;}.cls-2{fill:#003e8d;}</style></defs><title>STEP2</title><g id="背景"><rect class="cls-1" width="640" height="427"/></g><g id="レイヤー_1" data-name="レイヤー 1"><g id="ご利用案内"><g id="ページ_" data-name="ページ０"><g id="ご出発"><g id="SHOP"><g id="store"><path class="cls-2" d="M454.79,124.39H174.22v35.07H454.79Zm17.54,175.36V264.68L454.79,177H174.22l-17.53,87.68v35.07h17.53V405H349.58V299.75h70.14V405h35.07V299.75ZM314.51,369.89H209.3V299.75H314.51Z" transform="translate(-100.94 -84.14)"/></g></g><path class="cls-2" d="M497.9,393.14c-21.73,0-39.35,17.4-39.35,38.87s17.62,38.87,39.35,38.87a38.87,38.87,0,1,0,0-77.74Zm0,59.82A21,21,0,1,1,519.11,432,21.11,21.11,0,0,1,497.9,453Z" transform="translate(-100.94 -84.14)"/><path class="cls-2" d="M458.26,409a7.17,7.17,0,0,1-4-1.22,7,7,0,0,1-3-4.55,7,7,0,0,1,1.11-5.31,55.35,55.35,0,0,1,91.13,0,7.05,7.05,0,0,1-1.93,9.87,7.23,7.23,0,0,1-9.95-1.91,40.93,40.93,0,0,0-67.38,0A7.19,7.19,0,0,1,458.26,409Z" transform="translate(-100.94 -84.14)"/><path class="cls-1" d="M497.9,375.08a54,54,0,0,1,44.63,23.44,5.92,5.92,0,0,1-1.62,8.29,6.09,6.09,0,0,1-8.4-1.6,42,42,0,0,0-69.24,0,6.1,6.1,0,0,1-8.39,1.61,5.93,5.93,0,0,1-1.63-8.3,54,54,0,0,1,44.65-23.45m0-2.25a56.26,56.26,0,0,0-46.5,24.43,8.19,8.19,0,0,0,2.23,11.44,8.35,8.35,0,0,0,11.5-2.21,39.8,39.8,0,0,1,65.53,0,8.33,8.33,0,0,0,11.5,2.2,8.19,8.19,0,0,0,2.23-11.44,56.26,56.26,0,0,0-46.49-24.41Z" transform="translate(-100.94 -84.14)"/><path class="cls-2" d="M639.53,393.14a38.87,38.87,0,1,0,0,77.74c21.73,0,39.35-17.4,39.35-38.87S661.26,393.14,639.53,393.14Zm0,59.82A21,21,0,1,1,660.74,432,21.11,21.11,0,0,1,639.53,453Z" transform="translate(-100.94 -84.14)"/><path class="cls-2" d="M639.53,375.08a54,54,0,0,0-44.64,23.45,5.93,5.93,0,0,0,1.62,8.3,6.11,6.11,0,0,0,8.4-1.61,42,42,0,0,1,69.24,0,6.09,6.09,0,0,0,8.39,1.6,5.93,5.93,0,0,0,1.62-8.3A54,54,0,0,0,639.53,375.08Z" transform="translate(-100.94 -84.14)"/><path class="cls-2" d="M616,366.93a4,4,0,0,0,4.24.85l35.2-15.21a8.49,8.49,0,0,0,4.07-11.39,8.68,8.68,0,0,0-11.53-4L625,348.4a3.87,3.87,0,0,1-4.22-.75L582.19,309.9a2.67,2.67,0,0,0-3.76-.1l-53.6,53.27a2.32,2.32,0,0,0,.09,3.54c6.79,5.78,28.78,24.5,36.37,31.11a3.78,3.78,0,0,1,.89,4.16L543.81,442a5,5,0,0,0,.47,4.54l12.24,16.59a11.61,11.61,0,0,0,16.11,2.49,11.29,11.29,0,0,0,2.52-15.91l-4.32-5.87a5.09,5.09,0,0,1-.53-4.56l18.53-43.14a4.06,4.06,0,0,0-.88-4.26c-4.39-4.19-15.17-14.45-20.42-19.28a2.44,2.44,0,0,1,0-3.62l23.33-22.37a2.6,2.6,0,0,1,3.72.1Z" transform="translate(-100.94 -84.14)"/><path class="cls-2" d="M610.77,306.35l-3.54,8.33,9.07,10.43a1.18,1.18,0,0,0,2-.3l4.86-11.43Z" transform="translate(-100.94 -84.14)"/><path class="cls-2" d="M607.81,304.66a1.19,1.19,0,0,0-1.68.56l-2,4.84a1.14,1.14,0,0,0,.19,1.21l1.24,1.43,3.2-7.53Z" transform="translate(-100.94 -84.14)"/><path class="cls-2" d="M601.9,309.15l2.06-4.83a3.56,3.56,0,0,1,5-1.68l14.92,8.49a19.73,19.73,0,0,0-2.77-15.39,21,21,0,0,0-14.81-9.09c-8.06-1-17.42,4.48-20.68,12.16L583.46,304a3.48,3.48,0,0,0,.69,3.76L604,327.48a6.84,6.84,0,0,0,9.71-.05c.24-.24.51-.54.77-.81l-12-13.83A3.46,3.46,0,0,1,601.9,309.15Zm-9.8-1.24a4.64,4.64,0,0,1-2.52-6.1,4.76,4.76,0,0,1,6.18-2.5,4.65,4.65,0,0,1,2.52,6.11A4.74,4.74,0,0,1,592.1,307.91Z" transform="translate(-100.94 -84.14)"/></g></g></g></g></svg>